<svg id="svg" version="1.1" xmlns="http://www.w3.org/2000/svg" xmlns:xlink="http://www.w3.org/1999/xlink" width="400" height="400" viewBox="0, 0, 400,400"><g id="svgg"><path id="path0" d="M162.000 0.454 C 161.450 0.676,159.470 1.017,157.600 1.211 C 149.659 2.034,135.689 6.501,134.867 8.479 C 134.793 8.656,134.556 8.800,134.339 8.800 C 133.856 8.800,130.252 11.227,130.067 11.677 C 129.993 11.855,129.717 12.000,129.453 12.000 C 128.235 12.000,119.440 20.619,116.799 24.400 C 116.262 25.170,115.502 26.149,115.111 26.575 C 114.720 27.002,114.400 27.572,114.400 27.842 C 114.400 28.112,114.265 28.393,114.100 28.467 C 113.724 28.634,112.425 30.764,112.129 31.700 C 112.007 32.085,111.748 32.400,111.553 32.400 C 111.359 32.400,111.200 32.760,111.200 33.200 C 111.200 33.640,111.020 34.000,110.800 34.000 C 110.580 34.000,110.400 34.349,110.400 34.776 C 110.400 35.203,110.220 35.664,110.000 35.800 C 109.780 35.936,109.600 36.397,109.600 36.824 C 109.600 37.251,109.420 37.600,109.200 37.600 C 108.980 37.600,108.800 37.872,108.800 38.205 C 108.800 38.538,108.638 39.123,108.439 39.505 C 108.240 39.887,107.860 41.010,107.593 42.000 C 107.327 42.990,106.966 44.160,106.792 44.600 C 105.195 48.630,104.520 61.007,105.783 63.095 C 109.155 68.669,116.408 66.011,116.959 59.000 C 117.384 53.584,118.102 49.051,118.797 47.400 C 118.982 46.960,119.367 45.745,119.654 44.700 C 119.940 43.655,120.315 42.800,120.487 42.800 C 120.659 42.800,120.800 42.528,120.800 42.196 C 120.800 41.350,122.329 38.119,123.672 36.128 C 124.293 35.208,124.800 34.278,124.800 34.061 C 124.800 33.844,124.948 33.607,125.128 33.533 C 125.309 33.460,125.935 32.688,126.521 31.818 C 127.810 29.902,132.765 24.763,134.757 23.276 C 135.550 22.684,136.548 21.885,136.975 21.500 C 137.402 21.115,137.987 20.800,138.275 20.800 C 138.564 20.800,138.800 20.645,138.800 20.457 C 138.800 19.986,146.448 16.241,149.400 15.266 C 151.680 14.513,153.010 14.194,157.931 13.221 C 163.420 12.136,173.259 13.114,179.800 15.395 C 182.757 16.426,189.295 19.647,190.000 20.419 C 190.110 20.540,190.830 21.077,191.600 21.614 C 194.990 23.975,198.667 27.419,201.192 30.600 C 203.496 33.502,206.400 38.190,206.400 39.007 C 206.400 39.333,206.580 39.600,206.800 39.600 C 207.020 39.600,207.200 39.872,207.200 40.205 C 207.200 40.538,207.380 41.168,207.600 41.605 C 207.820 42.042,208.180 42.758,208.400 43.195 C 208.620 43.632,208.800 44.341,208.800 44.771 C 208.800 45.201,208.980 45.664,209.200 45.800 C 209.420 45.936,209.600 46.566,209.600 47.200 C 209.600 47.834,209.780 48.464,210.000 48.600 C 210.220 48.736,210.400 49.546,210.400 50.400 C 210.400 51.254,210.580 52.064,210.800 52.200 C 211.023 52.338,211.200 54.196,211.200 56.400 C 211.200 58.604,211.377 60.462,211.600 60.600 C 211.820 60.736,212.000 61.262,212.000 61.769 C 212.000 63.505,215.348 66.000,217.677 66.000 C 219.833 66.000,223.200 63.695,223.200 62.219 C 223.200 61.905,223.380 61.536,223.600 61.400 C 223.820 61.264,224.000 59.824,224.000 58.200 C 224.000 56.576,223.820 55.136,223.600 55.000 C 223.380 54.864,223.200 53.514,223.200 52.000 C 223.200 50.486,223.020 49.136,222.800 49.000 C 222.580 48.864,222.400 48.054,222.400 47.200 C 222.400 46.346,222.220 45.536,222.000 45.400 C 221.780 45.264,221.600 44.634,221.600 44.000 C 221.600 43.366,221.420 42.736,221.200 42.600 C 220.980 42.464,220.800 42.001,220.800 41.571 C 220.800 41.141,220.641 40.477,220.447 40.095 C 220.252 39.713,219.914 38.950,219.696 38.400 C 217.988 34.106,214.252 27.507,211.412 23.765 C 209.900 21.775,202.633 14.513,200.837 13.198 C 200.087 12.649,199.245 11.975,198.965 11.700 C 198.686 11.425,198.264 11.200,198.029 11.200 C 197.793 11.200,197.600 11.020,197.600 10.800 C 197.600 10.580,197.330 10.400,197.000 10.400 C 196.670 10.400,196.400 10.220,196.400 10.000 C 196.400 9.780,196.145 9.600,195.833 9.600 C 195.522 9.600,195.207 9.442,195.133 9.250 C 194.719 8.160,183.082 3.401,178.400 2.406 C 177.190 2.149,175.647 1.772,174.972 1.569 C 174.296 1.366,172.750 1.200,171.535 1.200 C 170.321 1.200,168.444 0.932,167.364 0.604 C 165.115 -0.078,163.435 -0.125,162.000 0.454 M160.600 30.683 C 159.280 30.771,158.029 31.014,157.820 31.222 C 157.611 31.430,156.846 31.600,156.120 31.600 C 155.394 31.600,154.800 31.780,154.800 32.000 C 154.800 32.220,154.535 32.400,154.212 32.400 C 149.011 32.400,138.780 42.428,135.643 50.600 C 135.137 51.920,134.572 53.360,134.388 53.800 C 134.205 54.240,133.931 55.230,133.780 56.000 C 133.629 56.770,133.384 93.221,133.236 137.003 C 133.088 180.784,132.829 216.829,132.660 217.103 C 132.115 217.985,131.433 217.610,129.800 215.528 C 128.920 214.406,127.619 212.838,126.909 212.044 C 126.199 211.250,125.614 210.473,125.609 210.318 C 125.587 209.646,118.422 202.234,116.200 200.587 C 115.321 199.934,114.282 199.114,113.894 198.764 C 113.505 198.414,112.695 197.874,112.093 197.565 C 111.492 197.255,110.910 196.911,110.800 196.801 C 110.324 196.323,108.761 195.600,108.205 195.600 C 107.872 195.600,107.600 195.420,107.600 195.200 C 107.600 194.980,107.240 194.800,106.800 194.800 C 106.360 194.800,106.000 194.620,106.000 194.400 C 106.000 194.180,105.561 194.000,105.024 194.000 C 104.487 194.000,103.936 193.820,103.800 193.600 C 103.664 193.380,103.113 193.200,102.576 193.200 C 102.039 193.200,101.600 193.020,101.600 192.800 C 101.600 192.580,101.006 192.400,100.280 192.400 C 99.554 192.400,98.789 192.236,98.580 192.035 C 97.363 190.867,81.432 190.866,80.220 192.034 C 80.011 192.235,79.347 192.400,78.744 192.400 C 78.141 192.400,77.536 192.580,77.400 192.800 C 77.264 193.020,76.801 193.200,76.371 193.200 C 75.941 193.200,75.232 193.380,74.795 193.600 C 74.358 193.820,73.642 194.180,73.205 194.400 C 72.768 194.620,72.138 194.800,71.805 194.800 C 71.472 194.800,71.200 194.936,71.200 195.102 C 71.200 195.269,70.615 195.659,69.900 195.969 C 68.380 196.629,64.332 199.282,62.580 200.766 C 61.909 201.335,60.575 202.430,59.614 203.200 C 58.654 203.970,57.673 204.781,57.434 205.002 C 57.195 205.223,56.010 206.213,54.800 207.202 C 53.590 208.191,52.539 209.138,52.464 209.307 C 52.390 209.476,52.041 209.902,51.689 210.254 C 50.944 210.998,50.783 215.601,51.471 216.469 C 51.703 216.761,53.483 220.150,55.428 224.000 C 57.372 227.850,59.106 231.060,59.281 231.133 C 59.457 231.207,59.600 231.597,59.600 232.000 C 59.600 232.403,59.737 232.793,59.904 232.867 C 60.071 232.940,61.014 234.620,62.000 236.600 C 62.986 238.580,63.929 240.260,64.096 240.333 C 64.263 240.407,64.400 240.812,64.400 241.233 C 64.400 241.655,64.580 242.000,64.800 242.000 C 65.020 242.000,65.200 242.345,65.200 242.767 C 65.200 243.188,65.335 243.593,65.500 243.667 C 65.816 243.807,68.168 248.267,73.165 258.200 C 74.825 261.500,76.280 264.290,76.397 264.400 C 76.604 264.593,77.819 266.918,82.145 275.400 C 83.267 277.600,84.285 279.490,84.407 279.600 C 84.530 279.710,86.064 282.680,87.815 286.200 C 89.567 289.720,91.135 292.660,91.300 292.733 C 91.465 292.807,91.600 293.212,91.600 293.633 C 91.600 294.055,91.780 294.400,92.000 294.400 C 92.220 294.400,92.400 294.760,92.400 295.200 C 92.400 295.640,92.535 296.001,92.700 296.001 C 92.865 296.002,93.450 296.992,94.000 298.200 C 94.550 299.408,95.135 300.398,95.300 300.399 C 95.465 300.399,95.600 300.760,95.600 301.200 C 95.600 301.640,95.780 302.000,96.000 302.000 C 96.220 302.000,96.400 302.345,96.400 302.767 C 96.400 303.188,96.535 303.593,96.700 303.667 C 96.865 303.740,97.421 304.610,97.936 305.600 C 102.296 313.984,105.121 319.456,107.642 324.400 C 109.269 327.590,110.735 330.260,110.900 330.333 C 111.065 330.407,111.200 330.797,111.200 331.200 C 111.200 331.603,111.337 331.993,111.504 332.067 C 111.671 332.140,112.614 333.820,113.600 335.800 C 114.586 337.780,115.529 339.460,115.696 339.533 C 115.863 339.607,116.000 339.997,116.000 340.400 C 116.000 340.803,116.135 341.193,116.300 341.267 C 116.465 341.340,117.838 343.830,119.350 346.800 C 120.863 349.770,122.258 352.371,122.450 352.580 C 122.643 352.789,122.800 353.284,122.800 353.680 C 122.800 354.076,122.980 354.400,123.200 354.400 C 123.420 354.400,123.600 354.760,123.600 355.200 C 123.600 355.640,123.780 356.000,124.000 356.000 C 124.220 356.000,124.400 356.345,124.400 356.767 C 124.400 357.188,124.535 357.593,124.700 357.667 C 125.076 357.834,126.375 359.964,126.671 360.900 C 126.793 361.285,127.052 361.600,127.247 361.600 C 127.441 361.600,127.600 361.790,127.600 362.022 C 127.600 364.098,138.680 377.371,143.890 381.536 C 144.809 382.271,145.975 383.232,146.481 383.672 C 146.986 384.111,147.895 384.763,148.500 385.121 C 149.105 385.480,149.600 385.914,149.600 386.086 C 149.600 386.259,149.836 386.400,150.125 386.400 C 150.413 386.400,151.036 386.760,151.508 387.200 C 151.980 387.640,152.539 388.000,152.750 388.000 C 152.961 388.000,153.193 388.135,153.267 388.300 C 153.434 388.676,155.564 389.975,156.500 390.271 C 156.885 390.393,157.200 390.652,157.200 390.847 C 157.200 391.041,157.560 391.200,158.000 391.200 C 158.440 391.200,158.800 391.380,158.800 391.600 C 158.800 391.820,159.160 392.000,159.600 392.000 C 160.040 392.000,160.400 392.180,160.400 392.400 C 160.400 392.620,160.760 392.800,161.200 392.800 C 161.640 392.800,162.000 392.980,162.000 393.200 C 162.000 393.420,162.414 393.600,162.920 393.600 C 163.426 393.600,164.011 393.759,164.220 393.953 C 165.867 395.485,176.674 398.095,184.400 398.827 C 186.710 399.046,189.122 399.399,189.760 399.612 C 191.243 400.108,274.400 400.143,274.400 399.648 C 274.400 399.454,276.335 399.179,278.700 399.036 C 285.705 398.614,290.345 397.706,297.600 395.340 C 301.129 394.189,301.300 394.119,305.200 392.238 C 308.786 390.509,310.552 389.507,310.733 389.100 C 310.807 388.935,311.042 388.800,311.255 388.800 C 311.973 388.800,317.874 384.630,321.161 381.800 C 327.187 376.611,337.200 364.764,337.200 362.822 C 337.200 362.590,337.380 362.400,337.600 362.400 C 337.820 362.400,338.000 362.130,338.000 361.800 C 338.000 361.470,338.180 361.200,338.400 361.200 C 338.620 361.200,338.800 360.930,338.800 360.600 C 338.800 360.270,338.980 360.000,339.200 360.000 C 339.420 360.000,339.600 359.640,339.600 359.200 C 339.600 358.760,339.780 358.400,340.000 358.400 C 340.220 358.400,340.400 358.040,340.400 357.600 C 340.400 357.160,340.580 356.800,340.800 356.800 C 341.020 356.800,341.200 356.440,341.200 356.000 C 341.200 355.560,341.380 355.200,341.600 355.200 C 341.820 355.200,342.000 354.840,342.000 354.400 C 342.000 353.960,342.180 353.600,342.400 353.600 C 342.620 353.600,342.800 353.328,342.800 352.995 C 342.800 352.662,342.959 352.077,343.153 351.695 C 345.243 347.587,347.631 338.910,348.904 330.800 C 349.507 326.954,349.786 188.910,349.196 186.000 C 347.342 176.852,342.188 168.142,336.700 164.881 C 336.095 164.522,335.600 164.086,335.600 163.914 C 335.600 163.741,335.330 163.600,335.000 163.600 C 334.670 163.600,334.400 163.420,334.400 163.200 C 334.400 162.980,334.130 162.800,333.800 162.800 C 333.470 162.800,333.200 162.620,333.200 162.400 C 333.200 162.180,332.840 162.000,332.400 162.000 C 331.960 162.000,331.600 161.820,331.600 161.600 C 331.600 161.380,331.240 161.200,330.800 161.200 C 330.360 161.200,330.000 161.020,330.000 160.800 C 330.000 160.580,329.550 160.400,329.000 160.400 C 328.450 160.400,328.000 160.220,328.000 160.000 C 328.000 159.780,327.496 159.600,326.880 159.600 C 326.264 159.600,325.589 159.440,325.380 159.243 C 324.163 158.102,310.876 158.106,310.170 159.249 C 310.051 159.442,309.434 159.600,308.800 159.600 C 308.166 159.600,307.536 159.780,307.400 160.000 C 307.264 160.220,306.803 160.400,306.376 160.400 C 305.949 160.400,305.600 160.580,305.600 160.800 C 305.600 161.020,305.328 161.200,304.995 161.200 C 304.439 161.200,302.876 161.923,302.400 162.401 C 302.290 162.511,301.734 162.841,301.164 163.134 C 300.594 163.427,299.514 164.191,298.764 164.832 C 297.399 165.999,296.000 166.375,296.000 165.575 C 296.000 164.957,293.498 159.824,293.120 159.667 C 292.944 159.593,292.800 159.321,292.800 159.062 C 292.800 158.600,291.170 156.590,288.400 153.637 C 286.431 151.538,282.386 148.637,279.688 147.389 C 278.430 146.807,277.087 146.166,276.705 145.965 C 276.323 145.764,275.558 145.600,275.005 145.600 C 274.452 145.600,274.000 145.420,274.000 145.200 C 274.000 144.980,273.046 144.800,271.880 144.800 C 270.714 144.800,269.562 144.602,269.321 144.361 C 269.052 144.092,268.048 144.005,266.741 144.137 C 260.864 144.728,259.600 144.924,259.600 145.248 C 259.600 145.442,259.071 145.600,258.424 145.600 C 257.777 145.600,257.136 145.780,257.000 146.000 C 256.864 146.220,256.313 146.400,255.776 146.400 C 255.239 146.400,254.800 146.580,254.800 146.800 C 254.800 147.020,254.440 147.200,254.000 147.200 C 253.560 147.200,253.200 147.336,253.200 147.502 C 253.200 147.669,252.615 148.059,251.900 148.370 C 251.185 148.681,250.510 149.041,250.400 149.169 C 250.290 149.297,249.459 149.905,248.553 150.519 C 247.648 151.133,246.491 152.077,245.984 152.617 C 244.958 153.710,243.600 153.927,243.600 153.000 C 243.600 152.670,243.464 152.400,243.298 152.400 C 243.131 152.400,242.737 151.815,242.422 151.100 C 242.107 150.385,241.610 149.559,241.319 149.265 C 241.027 148.971,240.296 148.074,239.694 147.271 C 238.223 145.308,236.493 143.591,234.800 142.413 C 234.030 141.877,233.308 141.309,233.196 141.151 C 231.406 138.628,219.636 135.305,213.985 135.727 C 207.802 136.188,203.043 137.695,198.864 140.516 C 197.896 141.170,196.976 141.536,196.785 141.344 C 196.596 141.155,196.375 122.460,196.295 99.800 C 196.129 52.851,196.362 56.230,192.756 48.600 C 192.236 47.500,191.718 46.510,191.605 46.400 C 191.491 46.290,191.144 45.705,190.832 45.100 C 190.520 44.495,190.115 44.000,189.932 44.000 C 189.750 44.000,189.600 43.754,189.600 43.454 C 189.600 41.733,179.074 33.200,176.952 33.200 C 176.648 33.200,176.400 33.059,176.400 32.887 C 176.400 32.715,175.545 32.340,174.500 32.053 C 173.455 31.765,172.150 31.378,171.600 31.192 C 170.356 30.770,163.812 30.467,160.600 30.683 M168.800 43.200 C 168.800 43.420,169.233 43.600,169.762 43.600 C 171.457 43.600,177.355 47.249,178.465 48.985 C 178.611 49.213,179.196 49.940,179.765 50.600 C 180.334 51.260,180.799 52.025,180.800 52.300 C 180.800 52.575,180.980 52.800,181.200 52.800 C 181.420 52.800,181.600 53.160,181.600 53.600 C 181.600 54.040,181.780 54.400,182.000 54.400 C 182.220 54.400,182.400 54.749,182.400 55.176 C 182.400 55.603,182.580 56.064,182.800 56.200 C 183.020 56.336,183.200 57.056,183.200 57.800 C 183.200 58.544,183.380 59.264,183.600 59.400 C 183.864 59.563,184.000 86.009,184.000 137.438 C 184.000 209.587,184.049 215.307,184.672 216.314 C 185.626 217.856,187.064 219.200,187.759 219.200 C 188.086 219.200,188.464 219.380,188.600 219.600 C 188.736 219.820,189.456 220.000,190.200 220.000 C 190.944 220.000,191.664 219.820,191.800 219.600 C 191.936 219.380,192.315 219.200,192.642 219.200 C 193.332 219.200,194.854 217.768,195.649 216.369 C 196.096 215.583,196.238 210.442,196.400 189.200 C 196.622 160.103,196.631 160.017,200.001 155.876 C 200.214 155.614,200.865 154.805,201.448 154.078 C 202.620 152.617,206.839 149.600,207.711 149.600 C 208.017 149.600,208.390 149.477,208.541 149.326 C 209.786 148.080,217.459 147.520,220.372 148.462 C 227.036 150.617,232.570 156.086,234.273 162.200 C 235.537 166.737,235.600 168.046,235.600 189.806 L 235.600 212.000 237.200 213.600 C 239.952 216.352,244.957 215.672,246.895 212.284 C 247.273 211.621,247.460 206.490,247.638 191.800 C 247.874 172.269,248.024 170.243,249.326 168.941 C 249.477 168.790,249.600 168.414,249.600 168.105 C 249.600 166.749,255.139 160.000,256.252 160.000 C 256.517 160.000,256.793 159.865,256.867 159.700 C 256.940 159.535,257.900 158.975,259.000 158.456 C 260.100 157.937,261.313 157.352,261.695 157.156 C 262.654 156.664,271.092 156.702,271.400 157.200 C 271.536 157.420,272.087 157.600,272.624 157.600 C 273.161 157.600,273.600 157.780,273.600 158.000 C 273.600 158.220,273.960 158.400,274.400 158.400 C 274.840 158.400,275.200 158.580,275.200 158.800 C 275.200 159.020,275.497 159.200,275.859 159.200 C 277.907 159.200,284.800 168.414,284.800 171.151 C 284.800 171.592,284.980 172.064,285.200 172.200 C 285.456 172.358,285.611 178.871,285.630 190.324 C 285.661 208.480,285.732 209.434,287.200 211.455 C 288.733 213.566,292.723 214.254,295.084 212.814 C 297.772 211.175,298.000 210.060,298.000 198.562 C 298.000 187.503,298.105 186.689,300.141 182.000 C 301.379 179.150,305.814 174.000,307.030 174.000 C 307.307 174.000,307.593 173.865,307.667 173.700 C 307.885 173.209,311.216 171.600,312.014 171.600 C 312.420 171.600,312.864 171.420,313.000 171.200 C 313.326 170.672,322.274 170.672,322.600 171.200 C 322.736 171.420,323.191 171.600,323.611 171.600 C 324.302 171.600,324.975 171.914,328.030 173.662 C 331.260 175.511,335.006 180.611,336.684 185.445 C 338.001 189.240,337.759 323.869,336.422 330.800 C 336.189 332.010,335.885 333.769,335.746 334.709 C 335.607 335.649,335.338 336.515,335.147 336.633 C 334.956 336.751,334.800 337.289,334.800 337.829 C 334.800 338.369,334.642 339.123,334.449 339.505 C 334.256 339.887,333.884 340.920,333.623 341.800 C 332.899 344.234,332.189 345.954,330.238 350.000 C 328.509 353.586,327.507 355.352,327.100 355.533 C 326.935 355.607,326.800 355.888,326.800 356.158 C 326.800 356.428,326.485 356.998,326.100 357.425 C 325.715 357.851,325.145 358.695,324.832 359.300 C 324.520 359.905,324.115 360.400,323.932 360.400 C 323.750 360.400,323.598 360.625,323.595 360.900 C 323.580 362.364,310.832 375.200,309.393 375.200 C 309.164 375.200,308.717 375.560,308.400 376.000 C 308.083 376.440,307.666 376.800,307.473 376.800 C 307.281 376.800,306.646 377.139,306.062 377.553 C 305.478 377.967,304.325 378.687,303.500 379.153 C 302.675 379.619,301.365 380.360,300.588 380.800 C 299.811 381.240,298.911 381.600,298.588 381.600 C 298.265 381.600,298.000 381.780,298.000 382.000 C 298.000 382.220,297.728 382.400,297.395 382.400 C 297.062 382.400,296.432 382.580,295.995 382.800 C 295.558 383.020,294.842 383.380,294.405 383.600 C 293.968 383.820,293.259 384.000,292.829 384.000 C 292.399 384.000,291.949 384.159,291.829 384.354 C 291.708 384.549,291.113 384.810,290.505 384.936 C 289.897 385.061,288.500 385.360,287.400 385.600 C 281.061 386.981,280.542 386.995,232.800 386.997 C 185.135 387.000,183.391 386.955,178.000 385.596 C 177.010 385.346,175.613 385.045,174.896 384.927 C 174.179 384.808,173.494 384.551,173.373 384.356 C 173.252 384.160,172.801 384.000,172.371 384.000 C 171.941 384.000,171.277 383.841,170.895 383.647 C 170.513 383.452,169.750 383.115,169.200 382.897 C 167.155 382.087,164.196 380.590,164.067 380.300 C 163.993 380.135,163.588 380.000,163.167 380.000 C 162.745 380.000,162.400 379.841,162.400 379.647 C 162.400 379.452,162.085 379.193,161.700 379.071 C 160.791 378.783,158.847 377.588,157.842 376.700 C 157.406 376.315,156.895 376.000,156.706 376.000 C 156.518 376.000,155.927 375.563,155.393 375.029 C 154.859 374.495,153.897 373.748,153.255 373.369 C 151.842 372.534,144.138 364.755,142.788 362.800 C 142.257 362.030,141.502 361.051,141.111 360.625 C 140.720 360.198,140.400 359.696,140.400 359.508 C 140.400 359.320,140.040 358.780,139.600 358.308 C 139.160 357.836,138.800 357.213,138.800 356.925 C 138.800 356.636,138.641 356.400,138.447 356.400 C 138.252 356.400,137.993 356.085,137.871 355.700 C 137.648 354.997,136.382 352.774,135.991 352.400 C 135.876 352.290,134.694 350.040,133.364 347.400 C 127.687 336.132,124.581 330.191,124.300 330.067 C 124.135 329.993,124.000 329.588,124.000 329.167 C 124.000 328.745,123.820 328.400,123.600 328.400 C 123.380 328.400,123.200 328.040,123.200 327.600 C 123.200 327.160,123.020 326.800,122.800 326.800 C 122.580 326.800,122.400 326.455,122.400 326.033 C 122.400 325.612,122.265 325.207,122.100 325.133 C 121.935 325.060,121.371 324.190,120.846 323.200 C 117.495 316.876,115.492 313.009,112.452 307.000 C 110.560 303.260,108.916 300.110,108.798 300.000 C 108.680 299.890,107.958 298.540,107.194 297.000 C 106.429 295.460,105.668 294.140,105.502 294.067 C 105.336 293.993,105.200 293.588,105.200 293.167 C 105.200 292.745,105.020 292.400,104.800 292.400 C 104.580 292.400,104.400 292.055,104.400 291.633 C 104.400 291.212,104.265 290.807,104.100 290.733 C 103.779 290.590,101.501 286.265,96.026 275.400 C 94.142 271.660,92.465 268.540,92.300 268.467 C 92.135 268.393,92.000 268.003,92.000 267.600 C 92.000 267.197,91.865 266.807,91.700 266.733 C 91.535 266.660,90.815 265.475,90.100 264.100 C 89.385 262.725,88.215 260.475,87.500 259.100 C 86.785 257.725,86.065 256.540,85.900 256.467 C 85.735 256.393,85.600 255.988,85.600 255.567 C 85.600 255.145,85.420 254.800,85.200 254.800 C 84.980 254.800,84.800 254.455,84.800 254.033 C 84.800 253.612,84.665 253.207,84.500 253.133 C 84.335 253.060,82.940 250.480,81.400 247.400 C 79.860 244.320,78.510 241.710,78.400 241.600 C 77.934 241.134,77.200 239.567,77.200 239.039 C 77.200 238.724,77.064 238.407,76.898 238.333 C 76.732 238.260,75.968 236.940,75.200 235.400 C 74.432 233.860,73.668 232.540,73.502 232.467 C 73.336 232.393,73.200 231.988,73.200 231.567 C 73.200 231.145,73.020 230.800,72.800 230.800 C 72.580 230.800,72.400 230.455,72.400 230.033 C 72.400 229.612,72.265 229.207,72.100 229.133 C 71.804 229.002,71.290 228.049,66.876 219.450 L 64.642 215.100 66.053 213.850 C 69.789 210.540,71.419 209.200,71.713 209.200 C 71.889 209.200,72.420 208.840,72.892 208.400 C 73.364 207.960,73.987 207.600,74.275 207.600 C 74.564 207.600,74.800 207.420,74.800 207.200 C 74.800 206.980,75.160 206.800,75.600 206.800 C 76.040 206.800,76.400 206.620,76.400 206.400 C 76.400 206.180,76.672 206.000,77.005 206.000 C 77.338 206.000,77.923 205.841,78.305 205.647 C 81.308 204.119,82.583 203.897,89.359 203.717 C 93.203 203.615,95.468 203.708,95.739 203.979 C 95.971 204.211,96.653 204.400,97.256 204.400 C 97.859 204.400,98.464 204.580,98.600 204.800 C 98.736 205.020,99.171 205.200,99.567 205.200 C 100.440 205.200,105.095 207.525,106.175 208.500 C 106.602 208.885,107.105 209.200,107.294 209.200 C 107.482 209.200,108.042 209.605,108.539 210.100 C 109.035 210.595,109.972 211.451,110.621 212.001 C 111.269 212.552,112.790 214.168,114.000 215.592 C 115.210 217.016,116.428 218.426,116.706 218.725 C 116.984 219.024,117.704 219.929,118.306 220.735 C 118.908 221.541,119.580 222.401,119.800 222.647 C 120.629 223.573,121.835 225.062,122.845 226.408 C 123.420 227.174,124.410 228.367,125.045 229.060 C 126.365 230.500,126.864 231.100,128.806 233.584 C 129.572 234.566,130.593 235.777,131.073 236.275 C 131.553 236.774,132.453 237.861,133.073 238.691 C 134.592 240.724,135.065 241.200,135.571 241.200 C 135.807 241.200,136.000 241.380,136.000 241.600 C 136.000 242.735,141.418 242.023,142.854 240.700 C 145.328 238.418,145.200 243.487,145.200 148.115 C 145.200 50.226,144.979 58.055,147.898 52.691 C 149.139 50.411,153.131 46.275,154.806 45.533 C 155.463 45.243,156.000 44.869,156.000 44.702 C 156.000 44.536,156.349 44.400,156.776 44.400 C 157.203 44.400,157.664 44.220,157.800 44.000 C 157.936 43.780,158.476 43.600,159.000 43.600 C 159.524 43.600,160.064 43.420,160.200 43.200 C 160.339 42.975,162.271 42.800,164.624 42.800 C 167.141 42.800,168.800 42.959,168.800 43.200 " stroke="none" fill="#574f47" fill-rule="evenodd"></path><path id="path1" d="" stroke="none" fill="#574f47" fill-rule="evenodd"></path></g></svg>