<svg viewBox="0 0 95.514583 193.14585" width="143.26" height="289.71" xmlns="http://www.w3.org/2000/svg" xmlns:xlink="http://www.w3.org/1999/xlink">
  <defs>
    <linearGradient id="linearGradient2462-4-1" x1="-0.69643712" y1="29.932404" x2="-0.69643712" y2="52.201885" gradientUnits="userSpaceOnUse" gradientTransform="translate(96.171243,27.892042)" xlink:href="#linearGradient1516"/>
    <linearGradient id="linearGradient1516">
      <stop offset="0.25" style="stop-color: rgb(217, 197, 178);"/>
      <stop style="stop-opacity: 1; stop-color: rgb(217, 197, 178);" offset="0.367" id="stop1508"/>
      <stop style="stop-opacity: 1; stop-color: rgb(200, 175, 153);" offset="0.651" id="stop1510"/>
      <stop style="stop-opacity: 1; stop-color: rgb(217, 197, 178);" offset="1" id="stop1514"/>
    </linearGradient>
    <linearGradient id="linearGradient2462-4" x1="-0.69643712" y1="29.932404" x2="-0.69643712" y2="43.662617" gradientUnits="userSpaceOnUse" gradientTransform="translate(3.430882,23.266846)" xlink:href="#linearGradient1516"/>
    <linearGradient id="linearGradient2462-4-3" x1="-0.69643712" y1="29.932404" x2="-0.69643712" y2="43.662617" gradientUnits="userSpaceOnUse" gradientTransform="translate(3.407073,41.797441)" xlink:href="#linearGradient1516"/>
    <linearGradient id="linearGradient2462" x1="-0.69643712" y1="29.932404" x2="-0.69643712" y2="36.839325" gradientUnits="userSpaceOnUse" gradientTransform="translate(3.407073,9.1989102)" xlink:href="#linearGradient1516"/>
    <filter style="color-interpolation-filters:sRGB" id="filter1498" x="-0.0066088707" width="1.0132177" y="-0.0032087156" height="1.0064174">
      <feGaussianBlur stdDeviation="0.96852657" id="feGaussianBlur1500"/>
    </filter>
    <clipPath clipPathUnits="userSpaceOnUse" id="clipPath2353-1-7">
      <rect style="display:inline;fill:none;fill-opacity:1;stroke:none;stroke-width:0.999999;stroke-linecap:round;stroke-linejoin:round;stroke-miterlimit:4;stroke-dasharray:none;stroke-opacity:1" id="rect2355-3-0" width="355.61673" height="728.3255" x="2.1916344" y="-3.1627369" ry="55.641438"/>
    </clipPath>
    <linearGradient id="linearGradient1516-0" gradientUnits="userSpaceOnUse" x1="165.489" y1="86.388" x2="165.489" y2="782.454" xlink:href="#linearGradient1516"/>
    <filter style="color-interpolation-filters:sRGB" id="filter2810" x="-0.075964987" width="1.15193" y="-3.1550879" height="7.3101759">
      <feGaussianBlur stdDeviation="0.46442349" id="feGaussianBlur2812"/>
    </filter>
    <clipPath clipPathUnits="userSpaceOnUse" id="clipPath2586-8">
      <path style="color:#72695f;font-style:normal;font-variant:normal;font-weight:normal;font-stretch:normal;font-size:medium;line-height:normal;font-family:sans-serif;font-variant-ligatures:normal;font-variant-position:normal;font-variant-caps:normal;font-variant-numeric:normal;font-variant-alternates:normal;font-variant-east-asian:normal;font-feature-settings:normal;font-variation-settings:normal;text-indent:0;text-align:start;text-decoration:none;text-decoration-line:none;text-decoration-style:solid;text-decoration-color:#72695f;letter-spacing:normal;word-spacing:normal;text-transform:none;writing-mode:lr-tb;direction:ltr;text-orientation:mixed;dominant-baseline:auto;baseline-shift:baseline;text-anchor:start;white-space:normal;shape-padding:0;shape-margin:0;inline-size:0;clip-rule:nonzero;display:inline;overflow:visible;visibility:visible;opacity:1;isolation:auto;mix-blend-mode:normal;color-interpolation:sRGB;color-interpolation-filters:linearRGB;solid-color:#72695f;solid-opacity:1;vector-effect:none;fill:#292929;fill-opacity:1;fill-rule:nonzero;stroke:none;stroke-width:1;stroke-linecap:round;stroke-linejoin:miter;stroke-miterlimit:4;stroke-dasharray:none;stroke-dashoffset:0;stroke-opacity:1;marker:none;color-rendering:auto;image-rendering:auto;shape-rendering:auto;text-rendering:auto;enable-background:accumulate;stop-color:#72695f;stop-opacity:1" d="m 22.509766,2.1699219 c -0.317894,0 -0.574219,0.2563261 -0.574219,0.5742188 0,0.3178919 0.256325,0.5761718 0.574219,0.5761718 h 13.564453 c 0.317892,0 0.574218,-0.2582797 0.57422,-0.5761718 0,-0.3178928 -0.256328,-0.5742188 -0.57422,-0.5742188 z m 0,0.041016 h 13.564453 c 0.296061,0 0.533202,0.2371418 0.533202,0.5332032 0,0.2960606 -0.237141,0.5351561 -0.533202,0.5351561 H 22.509766 c -0.296063,0 -0.533204,-0.2390953 -0.533204,-0.5351561 0,-0.2960615 0.237141,-0.5332032 0.533204,-0.5332032 z" id="path2588-9"/>
    </clipPath>
    <filter style="color-interpolation-filters:sRGB" id="filter5343" x="-0.19227619" width="1.3845524" y="-0.082464501" height="1.164929">
      <feGaussianBlur stdDeviation="0.030983682" id="feGaussianBlur5345"/>
    </filter>
    <filter style="color-interpolation-filters:sRGB" id="filter5347" x="-0.10877967" width="1.2175593" y="-0.082313925" height="1.1646278">
      <feGaussianBlur stdDeviation="0.030983682" id="feGaussianBlur5349"/>
    </filter>
  </defs>
  <g id="layer2">
    <g id="g1506" style="fill:#3f4b5b;fill-opacity:1">
      <path id="rect2415-6-8" style="display:inline;fill:#3f4b5b;fill-opacity:1;stroke:none;stroke-width:1.03188;stroke-linecap:round;stroke-linejoin:round;stroke-miterlimit:4;stroke-dasharray:none;stroke-opacity:1" d="m 93.019335,57.544437 h 2.240082 c 0.119329,0 0.2154,0.09607 0.2154,0.215392 v 22.302413 c 0,0.119327 -0.0961,0.215392 -0.2154,0.215392 h -2.240082 c -0.11933,0 -0.215389,-0.09606 -0.215389,-0.215392 V 57.759829 c 0,-0.119327 0.0961,-0.215392 0.215389,-0.215392 z"/>
      <path id="rect2415-6" style="display:inline;fill:#3f4b5b;fill-opacity:1;stroke:none;stroke-width:1.03188;stroke-linecap:round;stroke-linejoin:round;stroke-miterlimit:4;stroke-dasharray:none;stroke-opacity:1" d="M 0.25516299,52.919242 H 2.495243 c 0.11933,0 0.21539,0.09607 0.21539,0.215392 v 13.773297 c 0,0.119327 -0.0961,0.215392 -0.21539,0.215392 H 0.25516299 c -0.11933,0 -0.21539,-0.09606 -0.21539,-0.215392 V 53.134634 c 0,-0.119327 0.0961,-0.215392 0.21539,-0.215392 z"/>
      <path id="rect2415-6-0" style="display:inline;fill:#3f4b5b;fill-opacity:1;stroke:none;stroke-width:1.03188;stroke-linecap:round;stroke-linejoin:round;stroke-miterlimit:4;stroke-dasharray:none;stroke-opacity:1" d="M 0.25516299,71.449837 H 2.495243 c 0.11933,0 0.21539,0.09607 0.21539,0.215392 v 13.773296 c 0,0.119327 -0.0961,0.215392 -0.21539,0.215392 H 0.25516299 c -0.11933,0 -0.21539,-0.09606 -0.21539,-0.215392 V 71.665229 c 0,-0.119327 0.0961,-0.215392 0.21539,-0.215392 z"/>
      <rect style="display:inline;fill:#3f4b5b;fill-opacity:1;stroke:none;stroke-width:1.03188;stroke-linecap:round;stroke-linejoin:round;stroke-miterlimit:4;stroke-dasharray:none;stroke-opacity:1" id="rect2415" width="2.6708689" height="7.3807893" x="0.039770298" y="38.851303" ry="0.21539266"/>
    </g>
    <path id="rect2415-4-9-9" style="display:inline;fill:url(#linearGradient2462-4-1);fill-opacity:1;stroke:none;stroke-width:1.03188;stroke-linecap:round;stroke-linejoin:round;stroke-miterlimit:4;stroke-dasharray:none;stroke-opacity:1" d="m 93.019335,57.824449 h 2.240082 c 0.119329,0 0.2154,0.09607 0.2154,0.215392 v 21.828543 c 0,0.11933 -0.0961,0.215395 -0.2154,0.215395 h -2.240082 c -0.11933,0 -0.215389,-0.09607 -0.215389,-0.215395 V 58.039841 c 0,-0.119328 0.0961,-0.215392 0.215389,-0.215392 z"/>
    <path id="rect2415-4-9" style="display:inline;fill:url(#linearGradient2462-4);fill-opacity:1.0;stroke:none;stroke-width:1.03188;stroke-linecap:round;stroke-linejoin:round;stroke-miterlimit:4;stroke-dasharray:none;stroke-opacity:1" d="M 0.27897199,53.199251 H 2.519052 c 0.11933,0 0.21539,0.09607 0.21539,0.215395 v 13.29943 c 0,0.119327 -0.0961,0.215392 -0.21539,0.215392 H 0.27897199 c -0.11933,0 -0.21539,-0.09607 -0.21539,-0.215392 v -13.29943 c 0,-0.119327 0.0961,-0.215395 0.21539,-0.215395 z"/>
    <path id="rect2415-4-9-6" style="display:inline;fill:url(#linearGradient2462-4-3);fill-opacity:1.0;stroke:none;stroke-width:1.03188;stroke-linecap:round;stroke-linejoin:round;stroke-miterlimit:4;stroke-dasharray:none;stroke-opacity:1" d="M 0.25516299,71.729848 H 2.495243 c 0.11933,0 0.21539,0.09607 0.21539,0.215392 v 13.29943 c 0,0.119327 -0.0961,0.215392 -0.21539,0.215392 H 0.25516299 c -0.11933,0 -0.21539,-0.09607 -0.21539,-0.215392 V 71.94524 c 0,-0.119327 0.0961,-0.215392 0.21539,-0.215392 z"/>
    <rect style="display:inline;fill:url(#linearGradient2462);fill-opacity:1.0;stroke:none;stroke-width:1.03188;stroke-linecap:round;stroke-linejoin:round;stroke-miterlimit:4;stroke-dasharray:none;stroke-opacity:1" id="rect2415-4" width="2.6708689" height="6.9069233" x="0.039770298" y="39.131313" ry="0.21539266"/>
    <rect style="display:inline;fill:#c8e1f8;fill-opacity:1;stroke:#3f4b5b;stroke-width:0.264583;stroke-linecap:round;stroke-linejoin:round;stroke-miterlimit:4;stroke-dasharray:none;stroke-opacity:1" id="rect2163" width="94.090263" height="192.70279" x="0.72405833" y="0.22152601" ry="14.721798"/>
    <path id="rect2163-1" style="display:inline;fill:#a0b8ce;fill-opacity:1;stroke:none;stroke-width:0.999999;stroke-linecap:round;stroke-linejoin:round;stroke-miterlimit:4;stroke-dasharray:none;stroke-opacity:1;filter:url(#filter1498)" d="m 57.830078,-1.2109375 c -29.778781,0 -53.689453,23.9106715 -53.689453,53.6894535 V 669.52344 c 0,29.77878 23.910672,53.6875 53.689453,53.6875 H 302.16992 c 29.77878,0 53.68946,-23.90872 53.68946,-53.6875 V 52.478516 c 0,-29.778782 -23.91068,-53.6894535 -53.68946,-53.6894535 z" transform="matrix(0.26458334,0,0,0.26458334,0.14419499,1.058335)" clip-path="url(#clipPath2353-1-7)"/>
    <path id="rect2172" style="display:inline;fill:#819abb;fill-opacity:1;stroke:none;stroke-width:0.264583;stroke-linecap:round;stroke-linejoin:round;stroke-miterlimit:4;stroke-dasharray:none;stroke-opacity:1" d="M 74.555923,0.08940199 V 3.254066 h 1.314913 V 0.08940199 Z M 0.59170499,19.314584 V 20.6295 H 94.946676 v -1.314916 z m 0,153.537146 v 1.31491 H 94.946676 v -1.31491 z M 19.667546,190.33155 v 2.72488 h 1.314914 v -2.72488 z"/>
    <rect style="display:inline;fill:#72695f;fill-opacity:1;stroke:none;stroke-width:0.405938;stroke-linecap:round;stroke-linejoin:round;stroke-miterlimit:4;stroke-dasharray:none;stroke-opacity:1;stop-color:#72695f" id="rect1093" width="16.734886" height="1.3330069" x="39.654427" y="1.3694253"/>
    <path id="rect3540" style="display:inline;vector-effect:none;fill:#72695f;fill-opacity:1;fill-rule:nonzero;stroke:#434343;stroke-width:0.500001;stroke-linecap:butt;stroke-linejoin:miter;stroke-miterlimit:4;stroke-dasharray:none;stroke-dashoffset:0;stroke-opacity:1" d="M 59.314453 5.4257812 C 30.2552 5.4257812 6.8613281 28.819653 6.8613281 57.878906 L 6.8613281 672.12109 C 6.8613281 701.18035 30.2552 724.57422 59.314453 724.57422 L 301.77539 724.57422 C 330.83464 724.57422 354.22852 701.18035 354.22852 672.12109 L 354.22852 57.878906 C 354.22852 28.819653 330.83464 5.4257812 301.77539 5.4257812 L 213.09961 5.4257812 A 2.309 2.309 0 0 0 210.81836 7.3847656 L 210.81836 7.4863281 L 210.80469 7.4863281 L 152.19531 7.4863281 A 2.309 2.309 0 0 0 149.90039 5.4257812 L 59.314453 5.4257812 z " transform="scale(0.26458334)"/>
    <path id="path998" style="display: inline; stroke: none; stroke-width: 0.999999; stroke-linecap: butt; stroke-linejoin: miter; stroke-miterlimit: 4; stroke-dasharray: none; stroke-opacity: 1; fill-rule: nonzero; fill: url(#linearGradient1516-0);" d="M 57.916016,16.966797 C 36.879015,16.966128 19.824638,34.019615 19.824219,55.056641 V 674.94336 c -6.81e-4,21.03776 17.053998,38.09052 38.091797,38.08984 H 180.54492 303.17383 c 21.0378,6.8e-4 38.09248,-17.05208 38.09179,-38.08984 V 55.056641 C 341.26521,34.019613 324.21083,16.966128 303.17383,16.966797 h -48.84766 c -4.45164,0 -6.7539,0.460257 -6.7539,7.521484 0,7.061223 -4.37565,18.958985 -20.03321,18.958985 h -93.98828 c -15.65756,0 -20.0332,-11.897762 -20.0332,-18.958985 0,-7.061226 -2.30227,-7.521484 -6.75391,-7.521484 z" transform="scale(0.26458334)"/>
    <rect style="display:inline;fill:#72695f;fill-opacity:1;stroke:#1a1a1a;stroke-width:0.132292;stroke-linecap:round;stroke-linejoin:round;stroke-miterlimit:4;stroke-dasharray:none;stroke-opacity:1;stop-color:#72695f" id="rect1030" width="15.513851" height="1.8761874" x="40.264946" y="1.4355383" ry="0.61085194"/>
    <g id="g2819" transform="translate(4.9056839,1.0604965)" style="display:inline">
      <path id="rect5261" clip-path="none" style="color: rgb(114, 105, 95); display: inline; overflow: visible; visibility: visible; vector-effect: none; fill-opacity: 1; fill-rule: nonzero; stroke: none; stroke-width: 0.203476; stroke-linecap: round; stroke-linejoin: miter; stroke-miterlimit: 4; stroke-dasharray: none; stroke-dashoffset: 0; stroke-opacity: 1; marker: none; fill: rgb(78, 71, 62);" d="m 36.333803,0.75890791 h 13.560728 c 0.306977,0 0.55411,0.24713319 0.55411,0.55411019 v 2e-7 c 0,0.306977 -0.247133,0.5541103 -0.55411,0.5541103 H 36.333803 c -0.306978,0 -0.55411,-0.2471333 -0.55411,-0.5541103 v -2e-7 c 0,-0.306977 0.247132,-0.55411019 0.55411,-0.55411019 z"/>
      <path style="color: rgb(114, 105, 95); display: inline; overflow: visible; visibility: visible; vector-effect: none; fill-opacity: 1; fill-rule: nonzero; stroke: rgb(41, 41, 41); stroke-width: 0.0406953; stroke-linecap: round; stroke-linejoin: miter; stroke-miterlimit: 4; stroke-dasharray: none; stroke-dashoffset: 0; stroke-opacity: 1; marker: none; fill: rgb(77, 70, 62);" d="m 36.333801,0.75906771 c -0.306976,0 -0.553997,0.24701959 -0.553997,0.55399659 0,0.3069765 0.247021,0.5539963 0.553997,0.5539963 h 13.564771 c 0.306978,0 0.553997,-0.2470198 0.553997,-0.5539963 0,-0.306977 -0.247019,-0.55399659 -0.553997,-0.55399659 z" id="rect5261-0" clip-path="none"/>
      <g id="g2576" clip-path="url(#clipPath2586-8)" style="filter:url(#filter2810)" transform="translate(13.82448,-1.4319817)">
        <path id="path999-2" d="m 68.850589,7.9824588 c -10e-7,0.1268514 -0.102834,0.2296848 -0.229685,0.2296847 -0.126852,10e-8 -0.229685,-0.1028333 -0.229685,-0.2296847 0,-0.1268515 0.102833,-0.2296849 0.229685,-0.2296848 0.126851,-10e-8 0.229684,0.1028333 0.229685,0.2296848 z" style="display:inline;vector-effect:none;fill:#ffffff;fill-opacity:1;fill-rule:nonzero;stroke:none;stroke-width:0.0319826;stroke-linecap:butt;stroke-linejoin:miter;stroke-miterlimit:4;stroke-dasharray:none;stroke-dashoffset:0;stroke-opacity:1" transform="matrix(0.54888221,0,0,0.7690451,-1.1627745,-3.3938183)" clip-path="none" mask="none"/>
        <path id="path999-2-2" d="m 21.955324,2.7450525 c 10e-7,0.097555 0.05644,0.176638 0.12607,0.1766379 0.06963,10e-8 0.12607,-0.079083 0.12607,-0.1766379 0,-0.097554 -0.05644,-0.176638 -0.12607,-0.1766379 -0.06963,-1e-7 -0.126069,0.079083 -0.12607,0.1766379 z" style="display:inline;vector-effect:none;fill:#ffffff;fill-opacity:1;fill-rule:nonzero;stroke:none;stroke-width:0.0207792;stroke-linecap:butt;stroke-linejoin:miter;stroke-miterlimit:4;stroke-dasharray:none;stroke-dashoffset:0;stroke-opacity:1" clip-path="none" mask="none"/>
      </g>
    </g>
    <g id="g2170" transform="matrix(0.86611782,0,0,0.86611782,75.937463,1.8588713)" style="display:inline">
      <circle style="color: rgb(114, 105, 95); display: inline; overflow: visible; visibility: visible; opacity: 1; vector-effect: none; fill-opacity: 1; fill-rule: nonzero; stroke: none; stroke-width: 0.0343694; stroke-linecap: round; stroke-linejoin: miter; stroke-miterlimit: 4; stroke-dasharray: none; stroke-dashoffset: 0; stroke-opacity: 1; marker: none; fill: rgb(77, 70, 62);" id="path5263" cx="-46.563324" cy="5.9794521" r="1.7467661"/>
      <circle style="color:#72695f;display:inline;overflow:visible;visibility:visible;opacity:1;vector-effect:none;fill:#0a0d13;fill-opacity:1;fill-rule:nonzero;stroke:none;stroke-width:0.0264583;stroke-linecap:round;stroke-linejoin:miter;stroke-miterlimit:4;stroke-dasharray:none;stroke-dashoffset:0;stroke-opacity:1;marker:none;enable-background:accumulate" id="path5265" cx="-46.563324" cy="5.9794521" r="1.0774301"/>
      <circle style="color: rgb(114, 105, 95); display: inline; overflow: visible; visibility: visible; opacity: 1; vector-effect: none; fill-opacity: 1; fill-rule: nonzero; stroke: none; stroke-width: 0.0264583; stroke-linecap: round; stroke-linejoin: miter; stroke-miterlimit: 4; stroke-dasharray: none; stroke-dashoffset: 0; stroke-opacity: 1; marker: none; fill: rgb(77, 70, 62);" id="path5267" cx="-46.563324" cy="5.9794521" r="0.82091707"/>
      <path style="display: inline; fill-opacity: 0.556075; fill-rule: evenodd; stroke: none; stroke-width: 0.0264583; stroke-linecap: butt; stroke-linejoin: miter; stroke-miterlimit: 4; stroke-dasharray: none; stroke-opacity: 1; filter: url(#filter5343); fill: rgb(77, 70, 62);" d="m -47.128431,5.4302366 c -0.09735,0.010246 -0.235679,0.1588277 -0.245928,0.4508659 -0.01024,0.292038 0.117842,0.4508656 0.189571,0.4508656 0.07173,0 0.368889,-0.4252483 0.05635,-0.9017315 z" id="path5271"/>
      <path style="display: inline; fill-opacity: 0.556075; fill-rule: evenodd; stroke: none; stroke-width: 0.0264583; stroke-linecap: butt; stroke-linejoin: miter; stroke-miterlimit: 4; stroke-dasharray: none; stroke-opacity: 1; filter: url(#filter5347); fill: rgb(77, 70, 62);" d="m -46.429328,5.3279691 c -0.153553,0.047247 -0.183083,0.2952938 -0.177178,0.4370348 0.0059,0.1417412 0.206706,0.5138116 0.448847,0.4311293 0.242142,-0.082682 0.283483,-0.3897882 0.183084,-0.5964939 -0.100401,-0.2067057 -0.283483,-0.3543525 -0.454753,-0.2716702 z" id="path5273"/>
    </g>
  </g>
</svg>